<svg xmlns="http://www.w3.org/2000/svg" viewBox="0 0 426 400" width="426" height="400">
  <!-- Black background -->
  <path fill="#000000" d="M0,0h426v400H0z"/>
  <!-- White checkmark -->
  <path fill="#FFFFFF" d="M168.322 134.335C165.120 138.936 153.725 155.156 143 170.380C132.275 185.604 123.050 198.834 122.500 199.780C121.950 200.726 121.265 201.725 120.977 202C120.689 202.275 119.700 203.625 118.779 205C117.858 206.375 115.500 209.750 113.539 212.500C111.578 215.250 108.403 219.750 106.483 222.500C100.074 231.681 100.166 231.594 98.750 229.791C85.970 213.523 65.612 188.978 65.085 189.203C63.333 189.951 42.078 207.595 42.042 208.331C42.019 208.788 45.360 213.288 49.467 218.331C53.575 223.374 60.130 231.550 64.035 236.500C71.898 246.468 75.093 250.423 82.549 259.412C85.326 262.761 90.651 269.438 94.382 274.250C98.113 279.063 101.328 283 101.526 283C101.724 283 104.748 278.837 108.246 273.750C113.897 265.530 128.020 245.382 146.974 218.500C150.464 213.550 155.359 206.575 157.852 203C160.344 199.425 164.309 193.800 166.663 190.500C169.017 187.200 174.443 179.440 178.721 173.255C183 167.071 188.075 159.810 190 157.121C191.925 154.431 194.946 150.209 196.713 147.739L199.926 143.247 188.213 135.304C181.771 130.935 175.970 127.048 175.322 126.666C174.581 126.229 171.987 129.071 168.322 134.335"/>
  <!-- White list line 1 -->
  <path fill="#FFFFFF" d="M221.667 125.667C221.300 126.033 221 133.233 221 141.667L221 157 300 157L379 157 379 141L379 125 300.667 125C257.583 125 222.033 125.300 221.667 125.667"/>
  <!-- White list line 2 -->
  <path fill="#FFFFFF" d="M221.417 188.917C221.188 189.146 221 196.233 221 204.667L221 220 300.250 220.001L379.500 220.003 379.205 204.251L378.909 188.500 300.372 188.500C257.176 188.500 221.646 188.688 221.417 188.917"/>
  <!-- White list line 3 -->
  <path fill="#FFFFFF" d="M221.225 267.750L221.500 283.500 300.250 283.756L379 284.012 379 268.006L379 252 299.975 252L220.949 252 221.225 267.750"/>
</svg>
